<?xml version="1.0" encoding="utf-8"?>
<!-- Generator: Adobe Illustrator 26.0.0, SVG Export Plug-In . SVG Version: 6.00 Build 0)  -->
<svg version="1.1" id="图层_1" xmlns="http://www.w3.org/2000/svg" xmlns:xlink="http://www.w3.org/1999/xlink" x="0px" y="0px"
	 viewBox="0 0 3842 94" style="enable-background:new 0 0 3842 94;" xml:space="preserve">
<style type="text/css">
	.st0{fill:none;stroke:#119ae9;stroke-miterlimit:10;}
</style>
<path class="st0" d="M0.5,47.5c19.5-15.6,48.8-11.6,81-7c34.7,5,40.5,31.6,71,40c55.6,15.2,84.2-60.1,156-68
	c78-8.6,95.4,74.6,180,75c86.4,0.4,105.6-86.4,192-83c65.8,2.6,67.8,53.4,152,72c75.3,16.6,91.4-20.1,204-22
	c110.6-1.9,107,33.2,197,25c104.6-9.6,132.1-59.2,214-43c59.4,11.7,52.2,39.2,107,50c104,20.4,157.1-73.4,258-57
	c27.3,4.4,66.3-24.9,108,18c19.5,15.6,50.8,11.5,83,6.9c34.7-5,40.5-31.6,71-40c55.6-15.2,84.2,60.1,156,68c78,8.6,95.4-74.6,180-75
	c86.4-0.4,105.6,86.4,192,83c65.8-2.6,67.8-53.4,152-72c75.3-16.6,91.4,20.1,204,22c110.6,1.9,107-33.2,197-25
	c104.6,9.6,132.1,59.2,214,43c59.4-11.7,52.2-39.2,107-50c104-20.4,157.1,73.4,258,57c27.3-4.4,65.3,25,107-17.9"/>
</svg>
