<svg class="icon" style="width: 1em;height: 1em;vertical-align: middle;fill: currentColor;overflow: hidden;" viewBox="0 0 1024 1024" version="1.1" xmlns="http://www.w3.org/2000/svg" p-id="5552"><path d="M491.8784 410.8288v588.8l196.2496-196.2496 261.632-65.3824z" fill="#ABA9BE" p-id="5553"></path><path d="M424.96 490.1888L677.4272 670.72l-132.608 33.1264-16.4864 4.1472-12.032 12.032L424.96 811.1616V490.1888M363.52 370.7904v588.8l196.1984-196.2496 261.6832-65.3824L363.52 370.7904z" fill="#ABA9BE" p-id="5554"></path><path d="M313.7024 537.6a172.3904 172.3904 0 0 1-81.6128-147.968c0-93.9008 72.448-170.24 161.536-170.24s161.536 76.3392 161.536 170.24h-61.44c0-60.0064-44.9024-108.8-100.096-108.8s-100.096 48.6912-100.096 108.6976A110.7456 110.7456 0 0 0 345.344 484.864z" fill="#ABA9BE" p-id="5555"></path><path d="M218.2656 692.736a357.7856 357.7856 0 1 1 533.0944-311.9104h-61.44a296.3456 296.3456 0 1 0-441.4976 258.3552z" fill="#ABA9BE" p-id="5556"></path></svg>