<svg class="icon" style="width: 1em;height: 1em;vertical-align: middle;fill: currentColor;overflow: hidden;" viewBox="0 0 1024 1024" version="1.1" xmlns="http://www.w3.org/2000/svg" p-id="6184"><path d="M729.088 497.664c0-36.864-28.672-67.584-65.536-67.584-36.864 0-65.536 30.72-65.536 67.584 0 36.864 28.672 67.584 65.536 67.584 34.816 0 65.536-30.72 65.536-67.584z m-65.536-94.208c6.144 0 10.24-6.144 10.24-12.288V266.24c0-6.144-4.096-12.288-10.24-12.288s-10.24 6.144-10.24 12.288v124.928c-2.048 8.192 4.096 12.288 10.24 12.288z m-45.056-4.096c2.048 6.144 8.192 10.24 14.336 8.192 6.144-2.048 8.192-8.192 6.144-14.336l-38.912-118.784c-2.048-6.144-8.192-10.24-14.336-8.192-6.144 2.048-8.192 8.192-6.144 14.336l38.912 118.784z m88.064 190.464c-2.048-6.144-8.192-10.24-14.336-8.192-6.144 2.048-8.192 8.192-6.144 14.336l38.912 118.784c2.048 6.144 8.192 10.24 14.336 8.192 6.144-2.048 8.192-8.192 6.144-14.336l-38.912-118.784z m-122.88-159.744c4.096 4.096 12.288 4.096 16.384 0 4.096-4.096 4.096-12.288 0-16.384l-83.968-88.064c-4.096-4.096-12.288-4.096-16.384 0-4.096 4.096-4.096 12.288 0 16.384l83.968 88.064z m155.648 131.072c-4.096-4.096-12.288-4.096-16.384 0-4.096 4.096-4.096 12.288 0 16.384l83.968 88.064c4.096 4.096 12.288 4.096 16.384 0 4.096-4.096 4.096-12.288 0-16.384l-83.968-88.064z m-284.672-147.456l110.592 51.2c6.144 2.048 12.288 0 14.336-6.144 2.048-6.144 0-12.288-6.144-14.336l-110.592-51.2c-6.144-2.048-12.288 0-14.336 6.144-2.048 4.096 0 12.288 6.144 14.336z m413.696 163.84L757.76 526.336c-6.144-2.048-12.288 0-14.336 6.144-2.048 6.144 0 12.288 6.144 14.336l110.592 51.2c6.144 2.048 12.288 0 14.336-6.144 2.048-4.096 0-12.288-6.144-14.336z m-425.984-69.632h120.832c6.144 0 10.24-6.144 10.24-12.288s-4.096-12.288-10.24-12.288h-120.832c-6.144 0-10.24 6.144-10.24 12.288s4.096 12.288 10.24 12.288zM880.64 485.376h-120.832c-6.144 0-10.24 6.144-10.24 12.288s4.096 12.288 10.24 12.288H880.64c6.144 0 10.24-6.144 10.24-12.288 0-8.192-4.096-12.288-10.24-12.288z m-182.272-73.728c6.144 2.048 12.288 0 14.336-6.144l49.152-114.688c2.048-6.144 0-12.288-6.144-14.336-6.144-2.048-12.288 0-14.336 6.144l-49.152 114.688c-2.048 4.096 0 12.288 6.144 14.336z m-69.632 167.936c-6.144-2.048-12.288 0-14.336 6.144l-49.152 114.688c-2.048 6.144 0 12.288 6.144 14.336 6.144 2.048 12.288 0 14.336-6.144L634.88 593.92c2.048-6.144 0-12.288-6.144-14.336z m98.304-147.456c4.096 4.096 12.288 4.096 16.384 0l83.968-90.112c4.096-4.096 4.096-12.288 0-16.384-4.096-4.096-12.288-4.096-16.384 0l-83.968 90.112c-6.144 4.096-6.144 12.288 0 16.384zM520.192 663.552l79.872-86.016c4.096-4.096 4.096-12.288 0-16.384-4.096-4.096-10.24-4.096-14.336 0l-79.872 86.016c-4.096 4.096-4.096 12.288 0 16.384 2.048 4.096 10.24 4.096 14.336 0z m225.28-198.656c2.048 6.144 8.192 8.192 14.336 6.144l112.64-43.008c6.144-2.048 8.192-8.192 6.144-14.336-2.048-6.144-8.192-8.192-14.336-6.144L751.616 450.56c-6.144 2.048-8.192 8.192-6.144 14.336z m-165.888 61.44c-2.048-6.144-8.192-8.192-14.336-6.144L491.52 544.768c-6.144 2.048-8.192 8.192-6.144 14.336 2.048 6.144 8.192 8.192 14.336 6.144l73.728-26.624c6.144 0 8.192-6.144 6.144-12.288z m-139.264 178.176c2.048 0 2.048-2.048 4.096-4.096 2.048-4.096 2.048-6.144 0-10.24l-14.336-16.384v-2.048c0-2.048-2.048-4.096 0-6.144l6.144-20.48c0-4.096 0-6.144-2.048-10.24h-10.24l-16.384 6.144c-2.048 2.048-6.144 0-8.192-2.048l-14.336-12.288c-2.048-2.048-6.144-2.048-10.24 0s-6.144 4.096-6.144 8.192v20.48c0 2.048-2.048 6.144-4.096 8.192l-14.336 10.24c-2.048 2.048-2.048 4.096-2.048 8.192s2.048 6.144 6.144 8.192l18.432 6.144c2.048 0 4.096 2.048 4.096 4.096l6.144 20.48c2.048 4.096 4.096 6.144 6.144 6.144 4.096 0 6.144-2.048 8.192-4.096l10.24-14.336c0-2.048 2.048-2.048 4.096-4.096H440.32zM409.6 507.904c0-6.144-4.096-10.24-10.24-10.24s-10.24 4.096-10.24 10.24v20.48c0 6.144 4.096 10.24 10.24 10.24s10.24-4.096 10.24-10.24v-20.48z m-10.24 92.16c6.144 0 10.24-4.096 10.24-10.24v-20.48c0-6.144-4.096-10.24-10.24-10.24s-10.24 4.096-10.24 10.24v20.48c0 4.096 4.096 10.24 10.24 10.24z m53.248-43.008c4.096 2.048 10.24 2.048 14.336-4.096l10.24-18.432c2.048-4.096 2.048-12.288-4.096-14.336-4.096-2.048-10.24-2.048-14.336 4.096l-10.24 18.432c-2.048 4.096 0 10.24 4.096 14.336z m-8.192 14.336c-4.096-2.048-10.24-2.048-14.336 4.096l-8.192 18.432c-2.048 4.096-2.048 12.288 4.096 14.336 4.096 2.048 10.24 2.048 14.336-4.096l10.24-18.432c2.048-4.096 0-10.24-6.144-14.336z m-108.544-51.2l6.144 20.48c2.048 6.144 6.144 8.192 12.288 8.192 6.144-2.048 8.192-8.192 8.192-12.288l-6.144-20.48c-2.048-6.144-6.144-8.192-12.288-8.192-6.144 2.048-8.192 8.192-8.192 12.288z m22.528 45.056c-6.144 2.048-8.192 8.192-8.192 12.288l6.144 20.48c2.048 6.144 6.144 8.192 12.288 8.192 6.144-2.048 8.192-8.192 8.192-12.288l-6.144-20.48c0-6.144-6.144-8.192-12.288-8.192z m-51.2 12.288c4.096-4.096 4.096-10.24 0-14.336l-14.336-14.336c-4.096-4.096-10.24-4.096-14.336 0-4.096 4.096-4.096 10.24 0 14.336l14.336 14.336c4.096 4.096 10.24 4.096 14.336 0z m40.96 43.008c4.096-4.096 4.096-10.24 0-14.336l-14.336-14.336c-4.096-4.096-10.24-4.096-14.336 0-4.096 4.096-4.096 10.24 0 14.336l14.336 14.336c4.096 4.096 10.24 4.096 14.336 0z m-98.304-2.048l18.432 8.192c6.144 2.048 10.24 0 14.336-6.144 2.048-6.144 0-12.288-6.144-14.336l-18.432-8.192c-6.144-2.048-10.24 0-14.336 6.144 0 6.144 2.048 12.288 6.144 14.336z m79.872 14.336l-18.432-8.192c-6.144-2.048-10.24 0-14.336 6.144-2.048 6.144 0 12.288 6.144 14.336l18.432 8.192c6.144 2.048 10.24 0 14.336-6.144 2.048-6.144 0-12.288-6.144-14.336z m159.744 81.92l-18.432-8.192c-6.144-2.048-10.24 0-14.336 6.144-2.048 6.144 0 12.288 6.144 14.336l18.432 8.192c6.144 2.048 10.24 0 14.336-6.144 0-4.096-2.048-10.24-6.144-14.336z m51.2 24.576l-18.432-8.192c-6.144-2.048-10.24 0-14.336 6.144-2.048 6.144 0 12.288 6.144 14.336l18.432 8.192c6.144 2.048 10.24 0 14.336-6.144 2.048-4.096 0-10.24-6.144-14.336z m-264.192-69.632c0-6.144-4.096-10.24-10.24-10.24h-20.48c-6.144 0-10.24 6.144-10.24 10.24 0 6.144 4.096 10.24 10.24 10.24h20.48c6.144 0 10.24-4.096 10.24-10.24z m26.624 10.24h20.48c6.144 0 10.24-6.144 10.24-10.24 0-6.144-4.096-10.24-10.24-10.24h-20.48c-6.144 0-10.24 6.144-10.24 10.24s6.144 10.24 10.24 10.24z m194.56-10.24h-20.48c-6.144 0-10.24 6.144-10.24 10.24 0 6.144 4.096 10.24 10.24 10.24h20.48c6.144 0 10.24-6.144 10.24-10.24 0-6.144-4.096-10.24-10.24-10.24z m-208.896 49.152c-2.048-6.144-8.192-8.192-12.288-6.144l-18.432 8.192c-6.144 2.048-8.192 8.192-6.144 14.336 2.048 6.144 8.192 8.192 12.288 6.144l18.432-8.192c6.144-2.048 8.192-8.192 6.144-14.336z m53.248-22.528c-2.048-6.144-8.192-8.192-12.288-6.144l-18.432 8.192c-6.144 2.048-8.192 8.192-6.144 14.336 2.048 6.144 8.192 8.192 12.288 6.144l18.432-8.192c6.144-2.048 8.192-8.192 6.144-14.336z m-45.056 61.44l-16.384 14.336c-4.096 4.096-4.096 10.24-2.048 14.336 4.096 4.096 10.24 4.096 14.336 2.048l16.384-14.336c4.096-4.096 4.096-10.24 2.048-14.336-4.096-6.144-10.24-6.144-14.336-2.048z m40.96-8.192l16.384-14.336c4.096-4.096 4.096-10.24 2.048-14.336-4.096-4.096-10.24-4.096-14.336-2.048l-16.384 14.336c-4.096 4.096-4.096 10.24-2.048 14.336 4.096 4.096 10.24 4.096 14.336 2.048z m139.264-120.832c4.096-4.096 4.096-10.24 2.048-14.336-4.096-4.096-10.24-4.096-14.336-2.048l-16.384 14.336c-4.096 4.096-4.096 10.24-2.048 14.336 4.096 4.096 10.24 4.096 14.336 2.048l16.384-14.336zM348.16 790.528c-4.096-2.048-10.24 0-14.336 4.096l-8.192 18.432c-2.048 6.144 0 12.288 4.096 14.336 4.096 2.048 10.24 0 14.336-4.096l8.192-18.432c2.048-6.144 0-12.288-4.096-14.336z m24.576-55.296c-4.096-2.048-10.24 0-14.336 4.096l-8.192 18.432c-2.048 6.144 0 12.288 4.096 14.336 4.096 2.048 10.24 0 14.336-4.096l8.192-18.432c4.096-4.096 2.048-10.24-4.096-14.336z m102.4 45.056c-4.096-4.096-10.24-6.144-14.336-2.048-4.096 4.096-6.144 10.24-2.048 14.336l12.288 16.384c4.096 4.096 10.24 6.144 14.336 2.048 4.096-4.096 6.144-10.24 2.048-14.336l-12.288-16.384z m-34.816-49.152c-4.096-4.096-10.24-6.144-14.336-2.048-4.096 4.096-6.144 10.24-2.048 14.336l12.288 16.384c4.096 4.096 10.24 6.144 14.336 2.048 4.096-4.096 6.144-10.24 2.048-14.336l-12.288-16.384z m-45.056-372.736c20.48 0 36.864-18.432 36.864-38.912 0-22.528-16.384-38.912-36.864-38.912s-36.864 18.432-36.864 38.912c0 22.528 16.384 38.912 36.864 38.912z m6.144 38.912c0-8.192-6.144-14.336-14.336-14.336-8.192 0-14.336 6.144-14.336 14.336 0 8.192 6.144 14.336 14.336 14.336 8.192 0 14.336-6.144 14.336-14.336zM274.432 430.08c12.288 6.144 26.624 6.144 38.912 0 12.288-6.144 18.432-20.48 18.432-34.816s-8.192-26.624-18.432-34.816c-12.288-6.144-26.624-6.144-38.912 0-12.288 6.144-18.432 20.48-18.432 34.816s8.192 26.624 18.432 34.816z m47.104 10.24c-4.096 2.048-8.192 8.192-8.192 14.336 0 6.144 2.048 12.288 8.192 14.336 4.096 2.048 10.24 2.048 16.384 0 4.096-2.048 8.192-8.192 8.192-14.336 0-6.144-2.048-12.288-8.192-14.336-6.144-2.048-12.288-2.048-16.384 0z" fill="#e7e2e2a1" p-id="6185"></path></svg>