<svg class="icon" style="width: 1.1318359375em;height: 1em;vertical-align: middle;fill: currentColor;overflow: hidden;" viewBox="0 0 1159 1024" version="1.1" xmlns="http://www.w3.org/2000/svg" p-id="20322"><path d="M1043.325411 159.939689h-301.797437V136.003137a136.106758 136.106758 0 0 0-136.003137-136.003137H137.298418A136.093806 136.093806 0 0 0 1.295281 136.003137v123.179984a116.574117 116.574117 0 0 0-1.295268 17.382496v630.860266a116.703644 116.703644 0 0 0 116.574117 116.574117h926.751281a116.703644 116.703644 0 0 0 116.574117-116.574117V276.513806a116.703644 116.703644 0 0 0-116.574117-116.574117z m-258.794541 349.722352L555.85131 738.367507a47.665861 47.665861 0 0 1-65.955045 0l-114.527594-114.527594a45.334379 45.334379 0 0 1 0-64.115765 45.334379 45.334379 0 0 1 64.115765 0l83.389352 83.389352L720.415106 445.572182a45.334379 45.334379 0 0 1 64.115764 0 45.334379 45.334379 0 0 1 0 64.115765z" fill="#575B66" p-id="20323"></path></svg>