<svg class="icon" style="width: 1em;height: 1em;vertical-align: middle;fill: currentColor;overflow: hidden;" viewBox="0 0 1024 1024" version="1.1" xmlns="http://www.w3.org/2000/svg" p-id="8460"><path d="M512 1023.997867a508.627214 508.627214 0 0 1-362.025158-149.972709A508.712547 508.712547 0 0 1 0.002133 512a508.627214 508.627214 0 0 1 149.930042-362.025158A508.669881 508.669881 0 0 1 512 0.002133a508.669881 508.669881 0 0 1 362.025158 149.972709A508.627214 508.627214 0 0 1 1023.997867 512a508.712547 508.712547 0 0 1-149.930042 362.067825A508.627214 508.627214 0 0 1 512 1023.997867z m0-981.329245a469.843376 469.843376 0 0 0-469.331378 469.331378 469.886042 469.886042 0 0 0 469.331378 469.331378 469.886042 469.886042 0 0 0 469.331378-469.331378 469.843376 469.843376 0 0 0-469.331378-469.331378z" fill="#FFFFFF" p-id="8461"></path><path d="M512 512m-255.998933 0a255.998933 255.998933 0 1 0 511.997866 0 255.998933 255.998933 0 1 0-511.997866 0Z" fill="#FFFFFF" p-id="8462"></path></svg>